<svg width="390" height="316" viewBox="0 0 390 316" fill="none" xmlns="http://www.w3.org/2000/svg">
<g filter="url(#filter0_d)">
<rect x="20" y="10" width="350" height="276" rx="8" fill="white"/>
<path fill-rule="evenodd" clip-rule="evenodd" d="M136.104 54.227L133.925 50.573L130.058 52.4L127.879 48.7351L124.011 50.573L121.843 46.8973L117.976 48.7351L115.797 45.0703L111.93 46.9081L109.762 43.2324L105.883 45.0703L97.6798 71.5784L107.648 74.6054C108.024 73.4106 108.817 72.3885 109.886 71.7238C110.955 71.0591 112.228 70.7957 113.475 70.9811C114.722 71.1665 115.862 71.7885 116.687 72.7347C117.513 73.681 117.97 74.889 117.976 76.1405V76.2486C117.998 76.7243 117.943 77.2 117.802 77.6757L127.933 80.7567L136.104 54.227Z" fill="#D61920"/>
<path fill-rule="evenodd" clip-rule="evenodd" d="M106.232 69.3946C105.98 69.3532 105.751 69.2236 105.587 69.0292C105.423 68.8348 105.335 68.5885 105.339 68.3351V55.3621C105.337 55.2198 105.364 55.0785 105.419 54.9467C105.473 54.8149 105.553 54.6951 105.654 54.5945C105.756 54.4938 105.877 54.4142 106.009 54.3604C106.142 54.3066 106.285 54.2796 106.428 54.281H115.873C116.43 54.2796 116.981 54.387 117.496 54.597C118.011 54.8071 118.479 55.1156 118.873 55.5051C119.268 55.8946 119.581 56.3574 119.795 56.8671C120.01 57.3768 120.121 57.9234 120.122 58.4756V68.3351C120.122 68.4943 120.086 68.6515 120.018 68.7954C119.949 68.9394 119.849 69.0665 119.725 69.1677C119.601 69.2689 119.457 69.3417 119.301 69.3809C119.146 69.4202 118.983 69.4248 118.826 69.3946C118.576 69.3509 118.35 69.2203 118.188 69.0261C118.026 68.8319 117.939 68.587 117.943 68.3351V58.4865C117.943 57.9417 117.725 57.4192 117.337 57.034C116.949 56.6488 116.422 56.4324 115.873 56.4324H113.814V68.3243C113.815 68.4691 113.787 68.6127 113.731 68.7464C113.674 68.8801 113.592 69.0013 113.487 69.1027C113.363 69.2247 113.211 69.3151 113.044 69.3659C112.877 69.4168 112.7 69.4266 112.529 69.3946C112.277 69.3532 112.048 69.2236 111.884 69.0292C111.72 68.8348 111.632 68.5885 111.635 68.3351V56.4324H107.517V68.3243C107.518 68.4833 107.484 68.6406 107.417 68.785C107.35 68.9293 107.251 69.0571 107.128 69.1593C107.005 69.2616 106.861 69.3356 106.707 69.3763C106.552 69.417 106.39 69.4232 106.232 69.3946ZM121.941 75.0486C121.688 75.007 121.457 74.8758 121.293 74.6791C121.129 74.4825 121.042 74.2336 121.048 73.9783C121.049 73.6947 121.163 73.4229 121.364 73.2216C121.565 73.0179 121.839 72.9013 122.127 72.8973C123.053 72.8973 123.848 72.3135 124.109 71.4378L125.232 67.7297L121.56 55.5459C121.516 55.4096 121.5 55.2661 121.513 55.1236C121.525 54.9811 121.566 54.8425 121.633 54.7158C121.7 54.5891 121.791 54.4769 121.902 54.3855C122.013 54.2942 122.141 54.2256 122.279 54.1837C122.554 54.1083 122.847 54.1402 123.098 54.273C123.35 54.4057 123.54 54.6292 123.63 54.8973L126.354 63.9783L129.121 54.8973C129.252 54.4 129.807 54.0648 130.374 54.1729L130.45 54.1837C131.038 54.3675 131.365 54.9837 131.191 55.5567L127.41 68.054L126.212 72.054C125.943 72.9148 125.41 73.6708 124.687 74.2162C123.951 74.7635 123.057 75.0594 122.138 75.0594C122.072 75.0619 122.006 75.0583 121.941 75.0486Z" fill="#FEFEFE"/>
<path fill-rule="evenodd" clip-rule="evenodd" d="M55.3555 67.0271H57.4907C58.0599 67.0271 58.6058 66.8027 59.0083 66.4033C59.4108 66.0039 59.6369 65.4622 59.6369 64.8973V58.6595C59.6384 58.3798 59.5843 58.1026 59.4777 57.8437C59.3712 57.5847 59.2143 57.3492 59.016 57.1504C58.8177 56.9516 58.582 56.7936 58.3221 56.6852C58.0623 56.5769 57.7835 56.5204 57.5016 56.519H55.3555V67.0055V67.0271ZM54.0155 69.2541C53.7539 69.2103 53.5167 69.075 53.3469 68.8727C53.177 68.6705 53.0857 68.4146 53.0894 68.1514V48.7784C53.0875 48.6302 53.1154 48.4831 53.1716 48.3457C53.2277 48.2083 53.3109 48.0835 53.4163 47.9784C53.5438 47.847 53.7019 47.7487 53.8766 47.6922C54.0514 47.6356 54.2375 47.6226 54.4185 47.6541C54.9633 47.7622 55.3555 48.2163 55.3555 48.7676V54.2811H57.4907C58.0696 54.2797 58.6431 54.3916 59.1784 54.6105C59.7136 54.8293 60.2001 55.1508 60.61 55.5565C61.0198 55.9622 61.345 56.4442 61.5669 56.9748C61.7887 57.5054 61.9029 58.0742 61.9029 58.6487V64.8865C61.9001 66.044 61.4354 67.1533 60.6106 67.9717C59.7859 68.7902 58.668 69.2512 57.5016 69.2541H54.2224C54.1496 69.2584 54.0766 69.2548 54.0046 69.2433L54.0155 69.2541Z" fill="#333545"/>
<path fill-rule="evenodd" clip-rule="evenodd" d="M69.5834 56.4324C69.4611 56.4112 69.3372 56.4003 69.213 56.3999C68.9304 56.397 68.65 56.4502 68.3883 56.5562C68.1266 56.6622 67.8888 56.8189 67.6889 57.0173C67.4891 57.2156 67.3311 57.4515 67.2243 57.7112C67.1174 57.9709 67.0639 58.2492 67.0668 58.5297V65.027C67.0654 65.307 67.1199 65.5846 67.2273 65.8437C67.3346 66.1027 67.4926 66.338 67.6922 66.5361C67.8918 66.7341 68.129 66.891 68.39 66.9975C68.651 67.104 68.9308 67.1581 69.213 67.1567C69.7822 67.1567 70.3281 66.9323 70.7306 66.5329C71.1331 66.1335 71.3592 65.5918 71.3592 65.027V58.5405C71.3592 57.4918 70.6075 56.6161 69.5834 56.4324ZM68.4395 69.3513C67.4181 69.173 66.4929 68.6424 65.8272 67.8532C65.1615 67.0641 64.798 66.0669 64.8008 65.0378V58.5405C64.7989 57.9655 64.9126 57.3958 65.1352 56.8649C65.3578 56.334 65.6848 55.8525 66.0972 55.4486C66.5063 55.0428 66.9921 54.7211 67.5268 54.5022C68.0615 54.2833 68.6346 54.1714 69.213 54.1729C70.3803 54.1729 71.4998 54.6331 72.3252 55.4521C73.1506 56.2712 73.6143 57.3821 73.6143 58.5405V65.0378C73.6143 66.2053 73.1567 67.308 72.3179 68.1405C71.9105 68.5455 71.4265 68.8667 70.8937 69.0856C70.3608 69.3045 69.7897 69.4168 69.213 69.4161C68.9538 69.4172 68.6949 69.3955 68.4395 69.3513ZM81.2948 56.4432C81.1725 56.4219 81.0486 56.4111 80.9244 56.4107C80.6417 56.4079 80.3614 56.461 80.0996 56.567C79.8379 56.673 79.6002 56.8297 79.4003 57.0281C79.2004 57.2264 79.0425 57.4624 78.9356 57.7221C78.8288 57.9817 78.7753 58.26 78.7782 58.5405V65.0378C78.7768 65.3178 78.8313 65.5954 78.9386 65.8545C79.046 66.1135 79.204 66.3489 79.4036 66.5469C79.6032 66.745 79.8403 66.9018 80.1014 67.0083C80.3624 67.1148 80.6421 67.1689 80.9244 67.1675C81.2066 67.1689 81.4864 67.1148 81.7474 67.0083C82.0084 66.9018 82.2456 66.745 82.4452 66.5469C82.6448 66.3489 82.8028 66.1135 82.9101 65.8545C83.0175 65.5954 83.072 65.3178 83.0706 65.0378V58.5405C83.0706 57.5026 82.3189 56.627 81.2948 56.4432ZM80.1509 69.3513C79.1314 69.1707 78.2088 68.6392 77.5453 67.8502C76.8817 67.0613 76.5198 66.0654 76.5231 65.0378V58.5405C76.5248 57.9033 76.6666 57.2743 76.9386 56.6971C77.2107 56.12 77.6063 55.6087 78.098 55.199C78.5898 54.7893 79.1656 54.4911 79.7855 54.325C80.4054 54.159 81.0543 54.1292 81.687 54.2378C82.7086 54.4135 83.6349 54.9415 84.3025 55.7286C84.9702 56.5158 85.3364 57.5116 85.3366 58.5405V65.0378C85.3379 65.6153 85.223 66.1872 84.9985 66.72C84.774 67.2529 84.4445 67.7358 84.0293 68.1405C83.6219 68.5455 83.1379 68.8667 82.605 69.0856C82.0722 69.3045 81.5011 69.4168 80.9244 69.4161C80.6629 69.4161 80.4015 69.3945 80.1509 69.3513ZM89.1605 69.3945C88.8989 69.3507 88.6618 69.2154 88.4919 69.0132C88.3221 68.8109 88.2308 68.5551 88.2345 68.2918V48.7783C88.2345 48.4756 88.3434 48.1837 88.5613 47.9783C88.6898 47.8524 88.847 47.7592 89.0196 47.7065C89.1922 47.6538 89.3751 47.6432 89.5527 47.6756C90.0974 47.7621 90.5005 48.227 90.5005 48.7783V60.3243L95.708 54.5297C95.9694 54.2486 96.3616 54.1189 96.7538 54.1837C96.9516 54.2166 97.1368 54.3014 97.2904 54.4293C97.4439 54.5573 97.56 54.7237 97.6268 54.9114C97.6935 55.099 97.7084 55.3009 97.6698 55.4962C97.6312 55.6914 97.5406 55.8728 97.4075 56.0216L93.4746 60.3783L97.5382 67.7621C97.6114 67.8866 97.6587 68.0244 97.6774 68.1674C97.6961 68.3103 97.6858 68.4556 97.6472 68.5945C97.605 68.7377 97.5341 68.871 97.4386 68.9862C97.3431 69.1014 97.225 69.1962 97.0915 69.2648C96.8609 69.3964 96.5906 69.4424 96.3289 69.3945C96.1662 69.3672 96.0115 69.3046 95.8759 69.2112C95.7403 69.1178 95.6272 68.9958 95.5445 68.854L91.8841 62.1729L90.4896 63.6972V68.2918C90.4896 68.59 90.3702 68.876 90.1577 69.0868C89.9453 69.2977 89.6571 69.4161 89.3566 69.4161C89.2803 69.4161 89.215 69.4161 89.1387 69.3945H89.1605ZM139.067 69.3837C138.455 69.2819 137.873 69.0456 137.364 68.6921C136.855 68.3386 136.432 67.8768 136.126 67.3405C135.976 67.0777 135.937 66.7669 136.017 66.4756C136.104 66.1945 136.289 65.9567 136.54 65.8053C136.772 65.6792 137.042 65.6372 137.302 65.6864C137.629 65.7405 137.923 65.9351 138.087 66.227C138.381 66.7243 138.849 67.0486 139.427 67.1459C139.725 67.1972 140.03 67.1811 140.321 67.0987C140.611 67.0163 140.879 66.8698 141.105 66.6702C141.54 66.2702 141.758 65.6972 141.704 65.1351C141.692 64.8469 141.611 64.5656 141.469 64.314C141.327 64.0623 141.128 63.8473 140.887 63.6864L137.836 61.5351C137.339 61.1888 136.925 60.7379 136.624 60.2147C136.323 59.6915 136.142 59.1088 136.093 58.508C136.054 57.902 136.154 57.2949 136.386 56.733C136.618 56.1711 136.976 55.669 137.433 55.2648C137.879 54.8537 138.411 54.5462 138.992 54.3648C139.572 54.1834 140.186 54.1326 140.789 54.2161C142.074 54.4324 143.12 55.1675 143.719 56.2053C143.864 56.4647 143.901 56.7695 143.824 57.0557C143.747 57.3419 143.561 57.5873 143.305 57.7405C143.075 57.8721 142.804 57.918 142.543 57.8702C142.38 57.8429 142.225 57.7803 142.09 57.6869C141.954 57.5934 141.841 57.4715 141.758 57.3297C141.622 57.1003 141.435 56.9038 141.213 56.7543C140.991 56.6047 140.738 56.5059 140.473 56.4648C140.201 56.416 139.922 56.4307 139.657 56.5077C139.393 56.5846 139.15 56.7217 138.947 56.908C138.75 57.0928 138.596 57.3183 138.496 57.5687C138.397 57.819 138.354 58.088 138.37 58.3567C138.392 58.8864 138.697 59.4053 139.154 59.708L142.205 61.8161C142.723 62.1759 143.151 62.6483 143.457 63.1973C143.763 63.7462 143.938 64.3572 143.97 64.9837C144.02 65.6073 143.923 66.2339 143.687 66.8138C143.451 67.3937 143.081 67.9109 142.608 68.3243C142.148 68.7486 141.598 69.0658 140.999 69.2528C140.399 69.4398 139.766 69.4919 139.144 69.4053L139.056 69.3837H139.067ZM147.815 69.4161C147.554 69.3705 147.317 69.2351 147.145 69.0335C146.974 68.832 146.88 68.5771 146.879 68.3134V48.7999C146.877 48.6519 146.905 48.505 146.962 48.368C147.018 48.2309 147.102 48.1064 147.207 48.0017C147.313 47.897 147.438 47.8142 147.576 47.7583C147.714 47.7023 147.862 47.6742 148.012 47.6756L148.229 47.6864C148.774 47.7945 149.145 48.2378 149.145 48.7999V54.3134H151.291C151.869 54.312 152.442 54.424 152.977 54.643C153.511 54.862 153.997 55.1836 154.406 55.5895C154.815 55.9953 155.139 56.4774 155.36 57.0079C155.581 57.5385 155.693 58.1071 155.692 58.681V68.3026C155.693 68.4659 155.658 68.6273 155.589 68.7755C155.52 68.9238 155.419 69.0551 155.293 69.1603C155.167 69.2655 155.02 69.342 154.861 69.3844C154.702 69.4267 154.536 69.4339 154.374 69.4053C153.829 69.308 153.437 68.8432 153.437 68.2918V58.6702C153.437 58.391 153.381 58.1146 153.273 57.8568C153.165 57.599 153.007 57.365 152.808 57.1681C152.608 56.9712 152.372 56.8153 152.111 56.7095C151.851 56.6036 151.572 56.5499 151.291 56.5513H149.145V68.3026C149.146 68.467 149.11 68.6295 149.041 68.7787C148.971 68.9278 148.869 69.0598 148.742 69.1652C148.615 69.2706 148.466 69.3468 148.306 69.3883C148.146 69.4298 147.978 69.4357 147.815 69.4053V69.4161ZM163.373 56.454C163.064 56.3984 162.747 56.411 162.443 56.4909C162.14 56.5708 161.858 56.716 161.618 56.9162C161.378 57.1165 161.185 57.3668 161.053 57.6494C160.921 57.932 160.854 58.2399 160.856 58.5513V65.0486C160.854 65.3277 160.909 65.6044 161.015 65.8628C161.122 66.1211 161.279 66.356 161.477 66.5539C161.676 66.7518 161.912 66.9088 162.172 67.016C162.431 67.1231 162.71 67.1783 162.991 67.1783C163.558 67.1783 164.102 66.9621 164.506 66.5621C164.707 66.3644 164.867 66.1287 164.976 65.8687C165.084 65.6088 165.139 65.3299 165.137 65.0486V58.5405C165.137 57.5026 164.397 56.6161 163.362 56.4432L163.373 56.454ZM162.218 69.3405C161.199 69.1622 160.277 68.6328 159.613 67.8457C158.949 67.0585 158.587 66.0641 158.59 65.0378V58.5405C158.59 57.9024 158.731 57.2721 159.002 56.6937C159.273 56.1152 159.669 55.6026 160.161 55.1917C160.653 54.7808 161.229 54.4816 161.85 54.3149C162.47 54.1483 163.12 54.1183 163.754 54.227C164.777 54.403 165.705 54.9326 166.373 55.722C167.041 56.5114 167.406 57.5097 167.403 58.5405V65.0378C167.404 65.6135 167.289 66.1836 167.064 66.7146C166.84 67.2455 166.51 67.7266 166.096 68.1297C165.596 68.6276 164.983 68.9979 164.307 69.2087C163.632 69.4196 162.915 69.4648 162.218 69.3405Z" fill="#333545"/>
<path fill-rule="evenodd" clip-rule="evenodd" d="M184.802 55.5567C184.839 55.4194 184.848 55.2761 184.83 55.1352C184.811 54.9942 184.764 54.8582 184.693 54.7351C184.61 54.6039 184.502 54.4904 184.375 54.4012C184.248 54.3121 184.104 54.2492 183.952 54.2162C183.671 54.1635 183.38 54.2192 183.139 54.3719C182.899 54.5246 182.725 54.7628 182.655 55.0378C182.655 55.0919 181.435 59.9676 180.477 63.6757L180.455 63.7513L180.433 63.6757L178.254 55.0486C178.212 54.838 178.106 54.6453 177.95 54.4964C177.794 54.3476 177.596 54.2497 177.383 54.2162C177.318 54.2036 177.252 54.1963 177.187 54.1946C176.685 54.1946 176.25 54.5405 176.108 55.0378C176.097 55.0919 174.877 59.9676 173.929 63.6757L173.907 63.7513L173.886 63.6757C172.96 59.9676 171.707 55.0919 171.707 55.0378C171.655 54.8309 171.545 54.6432 171.388 54.4974C171.231 54.3516 171.036 54.2539 170.824 54.2162C170.643 54.1844 170.456 54.1978 170.282 54.2552C170.107 54.3127 169.949 54.4124 169.823 54.5453C169.696 54.6782 169.605 54.8403 169.557 55.0168C169.51 55.1934 169.507 55.3789 169.55 55.5567L172.829 68.5621C172.891 68.8005 173.03 69.012 173.225 69.1644C173.42 69.3167 173.659 69.4014 173.907 69.4054C174.441 69.4054 174.866 69.0594 174.975 68.5621L177.154 59.9243L177.187 59.8486L177.208 59.9243C178.167 63.6757 179.387 68.573 179.387 68.573C179.452 68.8067 179.591 69.0136 179.783 69.1634C179.975 69.3132 180.211 69.398 180.455 69.4054C180.706 69.4132 180.952 69.3329 181.149 69.1786C181.346 69.0244 181.482 68.8061 181.533 68.5621L184.802 55.5567Z" fill="#333545"/>
<g opacity="0.3">
<path fill-rule="evenodd" clip-rule="evenodd" d="M67.9298 116.187C65.5439 117.401 64.351 118.829 64.351 120.469C65.3679 120.59 66.2088 121.02 66.8738 121.759C67.5387 122.498 67.8712 123.354 67.8712 124.325C67.8712 125.358 67.5485 126.228 66.9031 126.937C66.2577 127.646 65.4461 128 64.4683 128C63.3731 128 62.4246 127.539 61.6228 126.618C60.821 125.697 60.4201 124.578 60.4201 123.262C60.4201 119.315 62.5517 116.227 66.8151 114L67.9298 116.187ZM59.5098 116.187C57.1043 117.401 55.9016 118.829 55.9016 120.469C56.9381 120.59 57.7888 121.02 58.4537 121.759C59.1186 122.498 59.4511 123.354 59.4511 124.325C59.4511 125.358 59.1235 126.228 58.4684 126.937C57.8132 127.646 56.9967 128 56.0189 128C54.9237 128 53.9801 127.539 53.1881 126.618C52.396 125.697 52 124.578 52 123.262C52 119.315 54.1219 116.227 58.3657 114L59.5098 116.187Z" fill="#2EC5CE"/>
</g>
<path d="M85.44 137H92.919V135.731H86.763V124.04H85.44V137ZM97.2344 137.27C98.9324 137.27 100.165 136.643 100.933 135.389V137H102.112V130.961C102.112 130.601 102.094 130.247 102.058 129.899C102.022 129.551 101.944 129.236 101.824 128.954C101.566 128.324 101.125 127.844 100.501 127.514C99.8834 127.178 99.1304 127.01 98.2424 127.01C97.1744 127.01 96.3044 127.25 95.6324 127.73C94.9604 128.21 94.5104 128.885 94.2824 129.755L95.5694 130.133C95.7554 129.485 96.0764 129.011 96.5324 128.711C96.9944 128.411 97.5584 128.261 98.2244 128.261C99.1484 128.261 99.8084 128.477 100.204 128.909C100.6 129.335 100.804 129.986 100.816 130.862C100.384 130.922 99.9074 130.985 99.3854 131.051C98.8694 131.117 98.3504 131.192 97.8284 131.276C97.3064 131.36 96.8264 131.456 96.3884 131.564C95.6624 131.756 95.0684 132.077 94.6064 132.527C94.1444 132.971 93.9134 133.592 93.9134 134.39C93.9134 134.906 94.0364 135.383 94.2824 135.821C94.5284 136.259 94.8974 136.61 95.3894 136.874C95.8874 137.138 96.5024 137.27 97.2344 137.27ZM97.3874 136.127C96.8654 136.127 96.4454 136.043 96.1274 135.875C95.8154 135.701 95.5874 135.482 95.4434 135.218C95.3054 134.948 95.2364 134.672 95.2364 134.39C95.2364 133.862 95.4134 133.466 95.7674 133.202C96.1214 132.938 96.5054 132.746 96.9194 132.626C97.4534 132.482 98.0744 132.365 98.7824 132.275C99.4904 132.185 100.162 132.101 100.798 132.023C100.798 132.245 100.789 132.5 100.771 132.788C100.759 133.07 100.726 133.331 100.672 133.571C100.546 134.303 100.198 134.912 99.6284 135.398C99.0644 135.884 98.3174 136.127 97.3874 136.127ZM104.446 137H105.778V131.816C105.778 130.718 106.024 129.857 106.516 129.233C107.008 128.609 107.722 128.297 108.658 128.297C109.336 128.297 109.882 128.462 110.296 128.792C110.71 129.116 111.01 129.56 111.196 130.124C111.382 130.688 111.475 131.327 111.475 132.041V137H112.807V131.654C112.807 131.108 112.738 130.562 112.6 130.016C112.468 129.47 112.252 128.972 111.952 128.522C111.652 128.072 111.253 127.712 110.755 127.442C110.257 127.172 109.642 127.037 108.91 127.037C108.214 127.037 107.584 127.172 107.02 127.442C106.462 127.706 106.003 128.102 105.643 128.63V127.28H104.446V137ZM118.844 137.27C119.552 137.27 120.173 137.126 120.707 136.838C121.241 136.544 121.682 136.145 122.03 135.641V137H123.218V124.04H121.886V128.423C121.532 127.979 121.094 127.634 120.572 127.388C120.056 127.136 119.462 127.01 118.79 127.01C117.902 127.01 117.14 127.235 116.504 127.685C115.868 128.135 115.379 128.747 115.037 129.521C114.701 130.295 114.533 131.165 114.533 132.131C114.533 133.103 114.701 133.976 115.037 134.75C115.379 135.524 115.871 136.139 116.513 136.595C117.161 137.045 117.938 137.27 118.844 137.27ZM118.979 136.037C118.307 136.037 117.743 135.866 117.287 135.524C116.837 135.176 116.498 134.708 116.27 134.12C116.048 133.532 115.937 132.869 115.937 132.131C115.937 131.399 116.048 130.739 116.27 130.151C116.492 129.563 116.828 129.098 117.278 128.756C117.734 128.414 118.31 128.243 119.006 128.243C120.02 128.243 120.776 128.606 121.274 129.332C121.778 130.052 122.03 130.985 122.03 132.131C122.03 132.881 121.919 133.55 121.697 134.138C121.475 134.726 121.139 135.191 120.689 135.533C120.239 135.869 119.669 136.037 118.979 136.037ZM125.922 125.435H127.245V123.95H125.922V125.435ZM125.922 137H127.245V127.28H125.922V137ZM130.907 137H132.23V128.414H134.885V127.28H132.23V126.416C132.23 125.396 132.731 124.886 133.733 124.886H134.885V123.77H133.643C133.271 123.77 132.896 123.809 132.518 123.887C132.14 123.965 131.804 124.163 131.51 124.481C131.246 124.769 131.078 125.096 131.006 125.462C130.94 125.822 130.907 126.188 130.907 126.56V127.28H129.224V128.414H130.907V137ZM137.71 141.32H139.033L144.253 127.28H142.903L139.96 135.272L136.765 127.28H135.361L139.312 136.973L137.71 141.32ZM153.047 137.261C154.241 137.261 155.177 137 155.855 136.478C156.539 135.95 156.881 135.227 156.881 134.309C156.881 133.805 156.773 133.382 156.557 133.04C156.347 132.698 155.984 132.401 155.468 132.149C154.958 131.897 154.256 131.657 153.362 131.429C152.6 131.237 152.012 131.06 151.598 130.898C151.19 130.736 150.908 130.565 150.752 130.385C150.596 130.199 150.518 129.977 150.518 129.719C150.518 129.257 150.734 128.888 151.166 128.612C151.598 128.336 152.159 128.204 152.849 128.216C153.581 128.228 154.184 128.402 154.658 128.738C155.132 129.068 155.417 129.518 155.513 130.088L156.863 129.845C156.797 129.281 156.587 128.786 156.233 128.36C155.879 127.934 155.411 127.604 154.829 127.37C154.253 127.13 153.599 127.01 152.867 127.01C152.135 127.01 151.49 127.127 150.932 127.361C150.38 127.589 149.948 127.913 149.636 128.333C149.33 128.747 149.177 129.23 149.177 129.782C149.177 130.232 149.279 130.616 149.483 130.934C149.693 131.246 150.05 131.525 150.554 131.771C151.058 132.011 151.748 132.251 152.624 132.491C153.446 132.713 154.061 132.905 154.469 133.067C154.883 133.229 155.159 133.406 155.297 133.598C155.435 133.784 155.504 134.027 155.504 134.327C155.504 134.855 155.291 135.275 154.865 135.587C154.439 135.899 153.857 136.055 153.119 136.055C152.363 136.055 151.727 135.893 151.211 135.569C150.695 135.239 150.368 134.798 150.23 134.246L148.88 134.471C149.048 135.347 149.498 136.031 150.23 136.523C150.968 137.015 151.907 137.261 153.047 137.261ZM161.658 137.27C163.356 137.27 164.589 136.643 165.357 135.389V137H166.536V130.961C166.536 130.601 166.518 130.247 166.482 129.899C166.446 129.551 166.368 129.236 166.248 128.954C165.99 128.324 165.549 127.844 164.925 127.514C164.307 127.178 163.554 127.01 162.666 127.01C161.598 127.01 160.728 127.25 160.056 127.73C159.384 128.21 158.934 128.885 158.706 129.755L159.993 130.133C160.179 129.485 160.5 129.011 160.956 128.711C161.418 128.411 161.982 128.261 162.648 128.261C163.572 128.261 164.232 128.477 164.628 128.909C165.024 129.335 165.228 129.986 165.24 130.862C164.808 130.922 164.331 130.985 163.809 131.051C163.293 131.117 162.774 131.192 162.252 131.276C161.73 131.36 161.25 131.456 160.812 131.564C160.086 131.756 159.492 132.077 159.03 132.527C158.568 132.971 158.337 133.592 158.337 134.39C158.337 134.906 158.46 135.383 158.706 135.821C158.952 136.259 159.321 136.61 159.813 136.874C160.311 137.138 160.926 137.27 161.658 137.27ZM161.811 136.127C161.289 136.127 160.869 136.043 160.551 135.875C160.239 135.701 160.011 135.482 159.867 135.218C159.729 134.948 159.66 134.672 159.66 134.39C159.66 133.862 159.837 133.466 160.191 133.202C160.545 132.938 160.929 132.746 161.343 132.626C161.877 132.482 162.498 132.365 163.206 132.275C163.914 132.185 164.586 132.101 165.222 132.023C165.222 132.245 165.213 132.5 165.195 132.788C165.183 133.07 165.15 133.331 165.096 133.571C164.97 134.303 164.622 134.912 164.052 135.398C163.488 135.884 162.741 136.127 161.811 136.127ZM171.156 137H172.524L176.052 127.28H174.693L171.84 135.272L168.969 127.28H167.628L171.156 137ZM181.43 137.27C182.372 137.27 183.215 137.039 183.959 136.577C184.709 136.115 185.276 135.458 185.66 134.606L184.427 134.129C183.809 135.377 182.792 136.001 181.376 136.001C180.404 136.001 179.642 135.698 179.09 135.092C178.544 134.486 178.244 133.625 178.19 132.509H185.849C185.897 130.793 185.522 129.449 184.724 128.477C183.932 127.499 182.816 127.01 181.376 127.01C180.44 127.01 179.627 127.22 178.937 127.64C178.253 128.06 177.722 128.657 177.344 129.431C176.966 130.205 176.777 131.123 176.777 132.185C176.777 133.211 176.966 134.105 177.344 134.867C177.728 135.629 178.268 136.22 178.964 136.64C179.666 137.06 180.488 137.27 181.43 137.27ZM181.412 128.225C183.242 128.225 184.259 129.284 184.463 131.402H178.217C178.319 130.376 178.643 129.59 179.189 129.044C179.735 128.498 180.476 128.225 181.412 128.225ZM191.617 137.27C192.325 137.27 192.946 137.126 193.48 136.838C194.014 136.544 194.455 136.145 194.803 135.641V137H195.991V124.04H194.659V128.423C194.305 127.979 193.867 127.634 193.345 127.388C192.829 127.136 192.235 127.01 191.563 127.01C190.675 127.01 189.913 127.235 189.277 127.685C188.641 128.135 188.152 128.747 187.81 129.521C187.474 130.295 187.306 131.165 187.306 132.131C187.306 133.103 187.474 133.976 187.81 134.75C188.152 135.524 188.644 136.139 189.286 136.595C189.934 137.045 190.711 137.27 191.617 137.27ZM191.752 136.037C191.08 136.037 190.516 135.866 190.06 135.524C189.61 135.176 189.271 134.708 189.043 134.12C188.821 133.532 188.71 132.869 188.71 132.131C188.71 131.399 188.821 130.739 189.043 130.151C189.265 129.563 189.601 129.098 190.051 128.756C190.507 128.414 191.083 128.243 191.779 128.243C192.793 128.243 193.549 128.606 194.047 129.332C194.551 130.052 194.803 130.985 194.803 132.131C194.803 132.881 194.692 133.55 194.47 134.138C194.248 134.726 193.912 135.191 193.462 135.533C193.012 135.869 192.442 136.037 191.752 136.037ZM206.178 137.27C207.138 137.27 207.96 137.054 208.644 136.622C209.334 136.19 209.862 135.59 210.228 134.822C210.6 134.048 210.786 133.151 210.786 132.131C210.786 131.129 210.603 130.244 210.237 129.476C209.877 128.702 209.352 128.099 208.662 127.667C207.978 127.229 207.15 127.01 206.178 127.01C205.23 127.01 204.411 127.226 203.721 127.658C203.037 128.084 202.509 128.681 202.137 129.449C201.765 130.217 201.579 131.111 201.579 132.131C201.579 133.133 201.759 134.021 202.119 134.795C202.485 135.569 203.01 136.175 203.694 136.613C204.384 137.051 205.212 137.27 206.178 137.27ZM206.178 136.001C205.128 136.001 204.333 135.65 203.793 134.948C203.253 134.24 202.983 133.301 202.983 132.131C202.983 130.997 203.244 130.073 203.766 129.359C204.288 128.639 205.092 128.279 206.178 128.279C207.252 128.279 208.053 128.63 208.581 129.332C209.115 130.028 209.382 130.961 209.382 132.131C209.382 133.277 209.118 134.21 208.59 134.93C208.062 135.644 207.258 136.001 206.178 136.001ZM216.489 137.243C217.185 137.243 217.812 137.111 218.37 136.847C218.934 136.577 219.396 136.178 219.756 135.65V137H220.944V127.28H219.621V132.464C219.621 133.562 219.375 134.423 218.883 135.047C218.391 135.671 217.677 135.983 216.741 135.983C216.063 135.983 215.517 135.821 215.103 135.497C214.689 135.167 214.389 134.72 214.203 134.156C214.017 133.592 213.924 132.953 213.924 132.239V127.28H212.592V132.626C212.592 133.172 212.658 133.718 212.79 134.264C212.928 134.81 213.147 135.308 213.447 135.758C213.747 136.208 214.146 136.568 214.644 136.838C215.148 137.108 215.763 137.243 216.489 137.243ZM223.459 137H224.782V132.149C224.782 131.567 224.848 130.988 224.98 130.412C225.118 129.83 225.43 129.347 225.916 128.963C226.27 128.675 226.654 128.51 227.068 128.468C227.488 128.42 227.878 128.438 228.238 128.522V127.28C227.812 127.172 227.329 127.169 226.789 127.271C226.249 127.367 225.787 127.583 225.403 127.919C225.115 128.135 224.863 128.435 224.647 128.819V127.28H223.459V137ZM238.841 137V135.839C238.145 135.953 237.56 135.971 237.086 135.893C236.618 135.815 236.276 135.575 236.06 135.173C235.946 134.963 235.883 134.723 235.871 134.453C235.865 134.177 235.862 133.835 235.862 133.427V128.414H238.841V127.28H235.862V124.58H234.548V127.28H232.469V128.414H234.548V133.481C234.548 133.955 234.554 134.378 234.566 134.75C234.584 135.122 234.68 135.485 234.854 135.839C235.07 136.271 235.385 136.589 235.799 136.793C236.219 136.997 236.693 137.111 237.221 137.135C237.755 137.159 238.295 137.114 238.841 137ZM240.936 125.435H242.259V123.95H240.936V125.435ZM240.936 137H242.259V127.28H240.936V137ZM244.948 137H246.28V130.727C246.28 129.965 246.487 129.356 246.901 128.9C247.315 128.438 247.858 128.207 248.53 128.207C249.202 128.207 249.742 128.432 250.15 128.882C250.564 129.326 250.771 129.935 250.771 130.709L250.762 137H252.067L252.076 130.727C252.076 130.121 252.187 129.635 252.409 129.269C252.637 128.897 252.925 128.627 253.273 128.459C253.621 128.291 253.978 128.207 254.344 128.207C254.986 128.207 255.514 128.423 255.928 128.855C256.348 129.281 256.558 129.869 256.558 130.619L256.549 137H257.872L257.881 130.367C257.881 129.341 257.587 128.528 256.999 127.928C256.417 127.322 255.634 127.019 254.65 127.019C254.002 127.019 253.42 127.166 252.904 127.46C252.388 127.748 251.989 128.147 251.707 128.657C251.443 128.123 251.062 127.718 250.564 127.442C250.072 127.16 249.508 127.019 248.872 127.019C248.296 127.019 247.771 127.136 247.297 127.37C246.823 127.598 246.436 127.91 246.136 128.306V127.28H244.948V137ZM264.258 137.27C265.2 137.27 266.043 137.039 266.787 136.577C267.537 136.115 268.104 135.458 268.488 134.606L267.255 134.129C266.637 135.377 265.62 136.001 264.204 136.001C263.232 136.001 262.47 135.698 261.918 135.092C261.372 134.486 261.072 133.625 261.018 132.509H268.677C268.725 130.793 268.35 129.449 267.552 128.477C266.76 127.499 265.644 127.01 264.204 127.01C263.268 127.01 262.455 127.22 261.765 127.64C261.081 128.06 260.55 128.657 260.172 129.431C259.794 130.205 259.605 131.123 259.605 132.185C259.605 133.211 259.794 134.105 260.172 134.867C260.556 135.629 261.096 136.22 261.792 136.64C262.494 137.06 263.316 137.27 264.258 137.27ZM264.24 128.225C266.07 128.225 267.087 129.284 267.291 131.402H261.045C261.147 130.376 261.471 129.59 262.017 129.044C262.563 128.498 263.304 128.225 264.24 128.225ZM274.458 125.435H275.781V123.95H274.458V125.435ZM274.458 137H275.781V127.28H274.458V137ZM278.47 137H279.802V131.816C279.802 130.718 280.048 129.857 280.54 129.233C281.032 128.609 281.746 128.297 282.682 128.297C283.36 128.297 283.906 128.462 284.32 128.792C284.734 129.116 285.034 129.56 285.22 130.124C285.406 130.688 285.499 131.327 285.499 132.041V137H286.831V131.654C286.831 131.108 286.762 130.562 286.624 130.016C286.492 129.47 286.276 128.972 285.976 128.522C285.676 128.072 285.277 127.712 284.779 127.442C284.281 127.172 283.666 127.037 282.934 127.037C282.238 127.037 281.608 127.172 281.044 127.442C280.486 127.706 280.027 128.102 279.667 128.63V127.28H278.47V137ZM89.031 169.27C89.739 169.27 90.36 169.126 90.894 168.838C91.428 168.544 91.869 168.145 92.217 167.641V169H93.405V156.04H92.073V160.423C91.719 159.979 91.281 159.634 90.759 159.388C90.243 159.136 89.649 159.01 88.977 159.01C88.089 159.01 87.327 159.235 86.691 159.685C86.055 160.135 85.566 160.747 85.224 161.521C84.888 162.295 84.72 163.165 84.72 164.131C84.72 165.103 84.888 165.976 85.224 166.75C85.566 167.524 86.058 168.139 86.7 168.595C87.348 169.045 88.125 169.27 89.031 169.27ZM89.166 168.037C88.494 168.037 87.93 167.866 87.474 167.524C87.024 167.176 86.685 166.708 86.457 166.12C86.235 165.532 86.124 164.869 86.124 164.131C86.124 163.399 86.235 162.739 86.457 162.151C86.679 161.563 87.015 161.098 87.465 160.756C87.921 160.414 88.497 160.243 89.193 160.243C90.207 160.243 90.963 160.606 91.461 161.332C91.965 162.052 92.217 162.985 92.217 164.131C92.217 164.881 92.106 165.55 91.884 166.138C91.662 166.726 91.326 167.191 90.876 167.533C90.426 167.869 89.856 168.037 89.166 168.037ZM100.043 169.27C100.985 169.27 101.828 169.039 102.572 168.577C103.322 168.115 103.889 167.458 104.273 166.606L103.04 166.129C102.422 167.377 101.405 168.001 99.9889 168.001C99.0169 168.001 98.2549 167.698 97.7029 167.092C97.1569 166.486 96.8569 165.625 96.8029 164.509H104.462C104.51 162.793 104.135 161.449 103.337 160.477C102.545 159.499 101.429 159.01 99.9889 159.01C99.0529 159.01 98.2399 159.22 97.5499 159.64C96.8659 160.06 96.3349 160.657 95.9569 161.431C95.5789 162.205 95.3899 163.123 95.3899 164.185C95.3899 165.211 95.5789 166.105 95.9569 166.867C96.3409 167.629 96.8809 168.22 97.5769 168.64C98.2789 169.06 99.1009 169.27 100.043 169.27ZM100.025 160.225C101.855 160.225 102.872 161.284 103.076 163.402H96.8299C96.9319 162.376 97.2559 161.59 97.8019 161.044C98.3479 160.498 99.0889 160.225 100.025 160.225ZM110.086 169.261C111.28 169.261 112.216 169 112.894 168.478C113.578 167.95 113.92 167.227 113.92 166.309C113.92 165.805 113.812 165.382 113.596 165.04C113.386 164.698 113.023 164.401 112.507 164.149C111.997 163.897 111.295 163.657 110.401 163.429C109.639 163.237 109.051 163.06 108.637 162.898C108.229 162.736 107.947 162.565 107.791 162.385C107.635 162.199 107.557 161.977 107.557 161.719C107.557 161.257 107.773 160.888 108.205 160.612C108.637 160.336 109.198 160.204 109.888 160.216C110.62 160.228 111.223 160.402 111.697 160.738C112.171 161.068 112.456 161.518 112.552 162.088L113.902 161.845C113.836 161.281 113.626 160.786 113.272 160.36C112.918 159.934 112.45 159.604 111.868 159.37C111.292 159.13 110.638 159.01 109.906 159.01C109.174 159.01 108.529 159.127 107.971 159.361C107.419 159.589 106.987 159.913 106.675 160.333C106.369 160.747 106.216 161.23 106.216 161.782C106.216 162.232 106.318 162.616 106.522 162.934C106.732 163.246 107.089 163.525 107.593 163.771C108.097 164.011 108.787 164.251 109.663 164.491C110.485 164.713 111.1 164.905 111.508 165.067C111.922 165.229 112.198 165.406 112.336 165.598C112.474 165.784 112.543 166.027 112.543 166.327C112.543 166.855 112.33 167.275 111.904 167.587C111.478 167.899 110.896 168.055 110.158 168.055C109.402 168.055 108.766 167.893 108.25 167.569C107.734 167.239 107.407 166.798 107.269 166.246L105.919 166.471C106.087 167.347 106.537 168.031 107.269 168.523C108.007 169.015 108.946 169.261 110.086 169.261ZM116.096 157.435H117.419V155.95H116.096V157.435ZM116.096 169H117.419V159.28H116.096V169ZM123.888 169.27C124.542 169.27 125.124 169.144 125.634 168.892C126.144 168.64 126.573 168.292 126.921 167.848V168.847C126.927 169.987 126.702 170.848 126.246 171.43C125.79 172.012 125.034 172.303 123.978 172.303C123.468 172.303 122.967 172.183 122.475 171.943C121.983 171.709 121.605 171.322 121.341 170.782L120.144 171.448C120.558 172.204 121.113 172.75 121.809 173.086C122.511 173.422 123.234 173.59 123.978 173.59C125.166 173.59 126.114 173.332 126.822 172.816C127.53 172.3 127.971 171.499 128.145 170.413C128.187 170.167 128.214 169.915 128.226 169.657C128.244 169.405 128.253 169.141 128.253 168.865V159.28H127.074V160.621C126.72 160.117 126.27 159.724 125.724 159.442C125.184 159.154 124.554 159.01 123.834 159.01C122.946 159.01 122.184 159.235 121.548 159.685C120.912 160.135 120.423 160.747 120.081 161.521C119.745 162.295 119.577 163.165 119.577 164.131C119.577 165.103 119.745 165.976 120.081 166.75C120.423 167.524 120.915 168.139 121.557 168.595C122.205 169.045 122.982 169.27 123.888 169.27ZM124.023 168.037C123.351 168.037 122.787 167.866 122.331 167.524C121.881 167.176 121.542 166.708 121.314 166.12C121.092 165.532 120.981 164.869 120.981 164.131C120.981 163.399 121.092 162.739 121.314 162.151C121.536 161.563 121.872 161.098 122.322 160.756C122.778 160.414 123.354 160.243 124.05 160.243C125.064 160.243 125.82 160.606 126.318 161.332C126.822 162.052 127.074 162.985 127.074 164.131C127.074 164.881 126.963 165.55 126.741 166.138C126.519 166.726 126.183 167.191 125.733 167.533C125.283 167.869 124.713 168.037 124.023 168.037ZM130.761 169H132.093V163.816C132.093 162.718 132.339 161.857 132.831 161.233C133.323 160.609 134.037 160.297 134.973 160.297C135.651 160.297 136.197 160.462 136.611 160.792C137.025 161.116 137.325 161.56 137.511 162.124C137.697 162.688 137.79 163.327 137.79 164.041V169H139.122V163.654C139.122 163.108 139.053 162.562 138.915 162.016C138.783 161.47 138.567 160.972 138.267 160.522C137.967 160.072 137.568 159.712 137.07 159.442C136.572 159.172 135.957 159.037 135.225 159.037C134.529 159.037 133.899 159.172 133.335 159.442C132.777 159.706 132.318 160.102 131.958 160.63V159.28H130.761V169ZM141.637 157.435H142.96V155.95H141.637V157.435ZM141.637 169H142.96V159.28H141.637V169ZM145.649 169H146.981V163.816C146.981 162.718 147.227 161.857 147.719 161.233C148.211 160.609 148.925 160.297 149.861 160.297C150.539 160.297 151.085 160.462 151.499 160.792C151.913 161.116 152.213 161.56 152.399 162.124C152.585 162.688 152.678 163.327 152.678 164.041V169H154.01V163.654C154.01 163.108 153.941 162.562 153.803 162.016C153.671 161.47 153.455 160.972 153.155 160.522C152.855 160.072 152.456 159.712 151.958 159.442C151.46 159.172 150.845 159.037 150.113 159.037C149.417 159.037 148.787 159.172 148.223 159.442C147.665 159.706 147.206 160.102 146.846 160.63V159.28H145.649V169ZM160.117 169.27C160.771 169.27 161.353 169.144 161.863 168.892C162.373 168.64 162.802 168.292 163.15 167.848V168.847C163.156 169.987 162.931 170.848 162.475 171.43C162.019 172.012 161.263 172.303 160.207 172.303C159.697 172.303 159.196 172.183 158.704 171.943C158.212 171.709 157.834 171.322 157.57 170.782L156.373 171.448C156.787 172.204 157.342 172.75 158.038 173.086C158.74 173.422 159.463 173.59 160.207 173.59C161.395 173.59 162.343 173.332 163.051 172.816C163.759 172.3 164.2 171.499 164.374 170.413C164.416 170.167 164.443 169.915 164.455 169.657C164.473 169.405 164.482 169.141 164.482 168.865V159.28H163.303V160.621C162.949 160.117 162.499 159.724 161.953 159.442C161.413 159.154 160.783 159.01 160.063 159.01C159.175 159.01 158.413 159.235 157.777 159.685C157.141 160.135 156.652 160.747 156.31 161.521C155.974 162.295 155.806 163.165 155.806 164.131C155.806 165.103 155.974 165.976 156.31 166.75C156.652 167.524 157.144 168.139 157.786 168.595C158.434 169.045 159.211 169.27 160.117 169.27ZM160.252 168.037C159.58 168.037 159.016 167.866 158.56 167.524C158.11 167.176 157.771 166.708 157.543 166.12C157.321 165.532 157.21 164.869 157.21 164.131C157.21 163.399 157.321 162.739 157.543 162.151C157.765 161.563 158.101 161.098 158.551 160.756C159.007 160.414 159.583 160.243 160.279 160.243C161.293 160.243 162.049 160.606 162.547 161.332C163.051 162.052 163.303 162.985 163.303 164.131C163.303 164.881 163.192 165.55 162.97 166.138C162.748 166.726 162.412 167.191 161.962 167.533C161.512 167.869 160.942 168.037 160.252 168.037ZM170.593 169H171.925V162.727C171.925 161.965 172.132 161.356 172.546 160.9C172.96 160.438 173.503 160.207 174.175 160.207C174.847 160.207 175.387 160.432 175.795 160.882C176.209 161.326 176.416 161.935 176.416 162.709L176.407 169H177.712L177.721 162.727C177.721 162.121 177.832 161.635 178.054 161.269C178.282 160.897 178.57 160.627 178.918 160.459C179.266 160.291 179.623 160.207 179.989 160.207C180.631 160.207 181.159 160.423 181.573 160.855C181.993 161.281 182.203 161.869 182.203 162.619L182.194 169H183.517L183.526 162.367C183.526 161.341 183.232 160.528 182.644 159.928C182.062 159.322 181.279 159.019 180.295 159.019C179.647 159.019 179.065 159.166 178.549 159.46C178.033 159.748 177.634 160.147 177.352 160.657C177.088 160.123 176.707 159.718 176.209 159.442C175.717 159.16 175.153 159.019 174.517 159.019C173.941 159.019 173.416 159.136 172.942 159.37C172.468 159.598 172.081 159.91 171.781 160.306V159.28H170.593V169ZM186.894 173.32H188.217L193.437 159.28H192.087L189.144 167.272L185.949 159.28H184.545L188.496 168.973L186.894 173.32ZM202.636 169.27C203.602 169.27 204.43 169.045 205.12 168.595C205.816 168.139 206.347 167.479 206.713 166.615L205.381 166.219C204.889 167.407 203.974 168.001 202.636 168.001C201.592 168.001 200.806 167.65 200.278 166.948C199.75 166.24 199.48 165.304 199.468 164.14C199.48 163.006 199.741 162.079 200.251 161.359C200.767 160.639 201.562 160.279 202.636 160.279C203.272 160.279 203.836 160.441 204.328 160.765C204.826 161.083 205.189 161.533 205.417 162.115L206.713 161.701C206.443 160.867 205.942 160.21 205.21 159.73C204.484 159.25 203.629 159.01 202.645 159.01C201.679 159.01 200.857 159.226 200.179 159.658C199.501 160.084 198.982 160.684 198.622 161.458C198.262 162.226 198.076 163.12 198.064 164.14C198.076 165.136 198.256 166.021 198.604 166.795C198.958 167.569 199.474 168.175 200.152 168.613C200.83 169.051 201.658 169.27 202.636 169.27ZM212.366 169.27C213.326 169.27 214.148 169.054 214.832 168.622C215.522 168.19 216.05 167.59 216.416 166.822C216.788 166.048 216.974 165.151 216.974 164.131C216.974 163.129 216.791 162.244 216.425 161.476C216.065 160.702 215.54 160.099 214.85 159.667C214.166 159.229 213.338 159.01 212.366 159.01C211.418 159.01 210.599 159.226 209.909 159.658C209.225 160.084 208.697 160.681 208.325 161.449C207.953 162.217 207.767 163.111 207.767 164.131C207.767 165.133 207.947 166.021 208.307 166.795C208.673 167.569 209.198 168.175 209.882 168.613C210.572 169.051 211.4 169.27 212.366 169.27ZM212.366 168.001C211.316 168.001 210.521 167.65 209.981 166.948C209.441 166.24 209.171 165.301 209.171 164.131C209.171 162.997 209.432 162.073 209.954 161.359C210.476 160.639 211.28 160.279 212.366 160.279C213.44 160.279 214.241 160.63 214.769 161.332C215.303 162.028 215.57 162.961 215.57 164.131C215.57 165.277 215.306 166.21 214.778 166.93C214.25 167.644 213.446 168.001 212.366 168.001ZM218.95 169H220.282V162.727C220.282 161.965 220.489 161.356 220.903 160.9C221.317 160.438 221.86 160.207 222.532 160.207C223.204 160.207 223.744 160.432 224.152 160.882C224.566 161.326 224.773 161.935 224.773 162.709L224.764 169H226.069L226.078 162.727C226.078 162.121 226.189 161.635 226.411 161.269C226.639 160.897 226.927 160.627 227.275 160.459C227.623 160.291 227.98 160.207 228.346 160.207C228.988 160.207 229.516 160.423 229.93 160.855C230.35 161.281 230.56 161.869 230.56 162.619L230.551 169H231.874L231.883 162.367C231.883 161.341 231.589 160.528 231.001 159.928C230.419 159.322 229.636 159.019 228.652 159.019C228.004 159.019 227.422 159.166 226.906 159.46C226.39 159.748 225.991 160.147 225.709 160.657C225.445 160.123 225.064 159.718 224.566 159.442C224.074 159.16 223.51 159.019 222.874 159.019C222.298 159.019 221.773 159.136 221.299 159.37C220.825 159.598 220.438 159.91 220.138 160.306V159.28H218.95V169ZM234.208 173.32H235.54V167.839C235.888 168.283 236.317 168.634 236.827 168.892C237.337 169.144 237.922 169.27 238.582 169.27C239.494 169.27 240.271 169.045 240.913 168.595C241.555 168.139 242.044 167.524 242.38 166.75C242.722 165.976 242.893 165.103 242.893 164.131C242.893 163.165 242.722 162.295 242.38 161.521C242.044 160.747 241.558 160.135 240.922 159.685C240.286 159.235 239.524 159.01 238.636 159.01C237.916 159.01 237.283 159.154 236.737 159.442C236.197 159.724 235.75 160.117 235.396 160.621V159.28H234.208V173.32ZM238.447 168.037C237.757 168.037 237.187 167.869 236.737 167.533C236.287 167.191 235.951 166.726 235.729 166.138C235.507 165.55 235.396 164.881 235.396 164.131C235.396 162.985 235.645 162.052 236.143 161.332C236.647 160.606 237.406 160.243 238.42 160.243C239.116 160.243 239.689 160.414 240.139 160.756C240.595 161.098 240.934 161.563 241.156 162.151C241.378 162.739 241.489 163.399 241.489 164.131C241.489 164.869 241.375 165.532 241.147 166.12C240.925 166.708 240.589 167.176 240.139 167.524C239.689 167.866 239.125 168.037 238.447 168.037ZM247.65 169.27C249.348 169.27 250.581 168.643 251.349 167.389V169H252.528V162.961C252.528 162.601 252.51 162.247 252.474 161.899C252.438 161.551 252.36 161.236 252.24 160.954C251.982 160.324 251.541 159.844 250.917 159.514C250.299 159.178 249.546 159.01 248.658 159.01C247.59 159.01 246.72 159.25 246.048 159.73C245.376 160.21 244.926 160.885 244.698 161.755L245.985 162.133C246.171 161.485 246.492 161.011 246.948 160.711C247.41 160.411 247.974 160.261 248.64 160.261C249.564 160.261 250.224 160.477 250.62 160.909C251.016 161.335 251.22 161.986 251.232 162.862C250.8 162.922 250.323 162.985 249.801 163.051C249.285 163.117 248.766 163.192 248.244 163.276C247.722 163.36 247.242 163.456 246.804 163.564C246.078 163.756 245.484 164.077 245.022 164.527C244.56 164.971 244.329 165.592 244.329 166.39C244.329 166.906 244.452 167.383 244.698 167.821C244.944 168.259 245.313 168.61 245.805 168.874C246.303 169.138 246.918 169.27 247.65 169.27ZM247.803 168.127C247.281 168.127 246.861 168.043 246.543 167.875C246.231 167.701 246.003 167.482 245.859 167.218C245.721 166.948 245.652 166.672 245.652 166.39C245.652 165.862 245.829 165.466 246.183 165.202C246.537 164.938 246.921 164.746 247.335 164.626C247.869 164.482 248.49 164.365 249.198 164.275C249.906 164.185 250.578 164.101 251.214 164.023C251.214 164.245 251.205 164.5 251.187 164.788C251.175 165.07 251.142 165.331 251.088 165.571C250.962 166.303 250.614 166.912 250.044 167.398C249.48 167.884 248.733 168.127 247.803 168.127ZM254.862 169H256.194V163.816C256.194 162.718 256.44 161.857 256.932 161.233C257.424 160.609 258.138 160.297 259.074 160.297C259.752 160.297 260.298 160.462 260.712 160.792C261.126 161.116 261.426 161.56 261.612 162.124C261.798 162.688 261.891 163.327 261.891 164.041V169H263.223V163.654C263.223 163.108 263.154 162.562 263.016 162.016C262.884 161.47 262.668 160.972 262.368 160.522C262.068 160.072 261.669 159.712 261.171 159.442C260.673 159.172 260.058 159.037 259.326 159.037C258.63 159.037 258 159.172 257.436 159.442C256.878 159.706 256.419 160.102 256.059 160.63V159.28H254.862V169ZM266.593 173.32H267.916L273.136 159.28H271.786L268.843 167.272L265.648 159.28H264.244L268.195 168.973L266.593 173.32ZM278.294 173.32H279.626V167.839C279.974 168.283 280.403 168.634 280.913 168.892C281.423 169.144 282.008 169.27 282.668 169.27C283.58 169.27 284.357 169.045 284.999 168.595C285.641 168.139 286.13 167.524 286.466 166.75C286.808 165.976 286.979 165.103 286.979 164.131C286.979 163.165 286.808 162.295 286.466 161.521C286.13 160.747 285.644 160.135 285.008 159.685C284.372 159.235 283.61 159.01 282.722 159.01C282.002 159.01 281.369 159.154 280.823 159.442C280.283 159.724 279.836 160.117 279.482 160.621V159.28H278.294V173.32ZM282.533 168.037C281.843 168.037 281.273 167.869 280.823 167.533C280.373 167.191 280.037 166.726 279.815 166.138C279.593 165.55 279.482 164.881 279.482 164.131C279.482 162.985 279.731 162.052 280.229 161.332C280.733 160.606 281.492 160.243 282.506 160.243C283.202 160.243 283.775 160.414 284.225 160.756C284.681 161.098 285.02 161.563 285.242 162.151C285.464 162.739 285.575 163.399 285.575 164.131C285.575 164.869 285.461 165.532 285.233 166.12C285.011 166.708 284.675 167.176 284.225 167.524C283.775 167.866 283.211 168.037 282.533 168.037ZM291.736 169.27C293.434 169.27 294.667 168.643 295.435 167.389V169H296.614V162.961C296.614 162.601 296.596 162.247 296.56 161.899C296.524 161.551 296.446 161.236 296.326 160.954C296.068 160.324 295.627 159.844 295.003 159.514C294.385 159.178 293.632 159.01 292.744 159.01C291.676 159.01 290.806 159.25 290.134 159.73C289.462 160.21 289.012 160.885 288.784 161.755L290.071 162.133C290.257 161.485 290.578 161.011 291.034 160.711C291.496 160.411 292.06 160.261 292.726 160.261C293.65 160.261 294.31 160.477 294.706 160.909C295.102 161.335 295.306 161.986 295.318 162.862C294.886 162.922 294.409 162.985 293.887 163.051C293.371 163.117 292.852 163.192 292.33 163.276C291.808 163.36 291.328 163.456 290.89 163.564C290.164 163.756 289.57 164.077 289.108 164.527C288.646 164.971 288.415 165.592 288.415 166.39C288.415 166.906 288.538 167.383 288.784 167.821C289.03 168.259 289.399 168.61 289.891 168.874C290.389 169.138 291.004 169.27 291.736 169.27ZM291.889 168.127C291.367 168.127 290.947 168.043 290.629 167.875C290.317 167.701 290.089 167.482 289.945 167.218C289.807 166.948 289.738 166.672 289.738 166.39C289.738 165.862 289.915 165.466 290.269 165.202C290.623 164.938 291.007 164.746 291.421 164.626C291.955 164.482 292.576 164.365 293.284 164.275C293.992 164.185 294.664 164.101 295.3 164.023C295.3 164.245 295.291 164.5 295.273 164.788C295.261 165.07 295.228 165.331 295.174 165.571C295.048 166.303 294.7 166.912 294.13 167.398C293.566 167.884 292.819 168.127 291.889 168.127ZM302.728 169.27C303.382 169.27 303.964 169.144 304.474 168.892C304.984 168.64 305.413 168.292 305.761 167.848V168.847C305.767 169.987 305.542 170.848 305.086 171.43C304.63 172.012 303.874 172.303 302.818 172.303C302.308 172.303 301.807 172.183 301.315 171.943C300.823 171.709 300.445 171.322 300.181 170.782L298.984 171.448C299.398 172.204 299.953 172.75 300.649 173.086C301.351 173.422 302.074 173.59 302.818 173.59C304.006 173.59 304.954 173.332 305.662 172.816C306.37 172.3 306.811 171.499 306.985 170.413C307.027 170.167 307.054 169.915 307.066 169.657C307.084 169.405 307.093 169.141 307.093 168.865V159.28H305.914V160.621C305.56 160.117 305.11 159.724 304.564 159.442C304.024 159.154 303.394 159.01 302.674 159.01C301.786 159.01 301.024 159.235 300.388 159.685C299.752 160.135 299.263 160.747 298.921 161.521C298.585 162.295 298.417 163.165 298.417 164.131C298.417 165.103 298.585 165.976 298.921 166.75C299.263 167.524 299.755 168.139 300.397 168.595C301.045 169.045 301.822 169.27 302.728 169.27ZM302.863 168.037C302.191 168.037 301.627 167.866 301.171 167.524C300.721 167.176 300.382 166.708 300.154 166.12C299.932 165.532 299.821 164.869 299.821 164.131C299.821 163.399 299.932 162.739 300.154 162.151C300.376 161.563 300.712 161.098 301.162 160.756C301.618 160.414 302.194 160.243 302.89 160.243C303.904 160.243 304.66 160.606 305.158 161.332C305.662 162.052 305.914 162.985 305.914 164.131C305.914 164.881 305.803 165.55 305.581 166.138C305.359 166.726 305.023 167.191 304.573 167.533C304.123 167.869 303.553 168.037 302.863 168.037ZM313.723 169.27C314.665 169.27 315.508 169.039 316.252 168.577C317.002 168.115 317.569 167.458 317.953 166.606L316.72 166.129C316.102 167.377 315.085 168.001 313.669 168.001C312.697 168.001 311.935 167.698 311.383 167.092C310.837 166.486 310.537 165.625 310.483 164.509H318.142C318.19 162.793 317.815 161.449 317.017 160.477C316.225 159.499 315.109 159.01 313.669 159.01C312.733 159.01 311.92 159.22 311.23 159.64C310.546 160.06 310.015 160.657 309.637 161.431C309.259 162.205 309.07 163.123 309.07 164.185C309.07 165.211 309.259 166.105 309.637 166.867C310.021 167.629 310.561 168.22 311.257 168.64C311.959 169.06 312.781 169.27 313.723 169.27ZM313.705 160.225C315.535 160.225 316.552 161.284 316.756 163.402H310.51C310.612 162.376 310.936 161.59 311.482 161.044C312.028 160.498 312.769 160.225 313.705 160.225ZM320.039 169H321.578V167.461H320.039V169Z" fill="#18191F"/>
<path d="M85.26 223H87.429V216.952L92.892 223H95.646L89.697 216.394L95.268 210.04H92.604L87.429 216.052V210.04H85.26V223ZM96.9143 223H99.0923V218.059C99.0923 217.495 99.1943 216.994 99.3983 216.556C99.6083 216.118 99.9353 215.779 100.379 215.539C100.679 215.365 101.015 215.263 101.387 215.233C101.759 215.197 102.092 215.221 102.386 215.305V213.28C101.948 213.214 101.498 213.223 101.036 213.307C100.574 213.385 100.163 213.547 99.8033 213.793C99.5993 213.919 99.4163 214.072 99.2543 214.252C99.0923 214.426 98.9513 214.621 98.8313 214.837V213.28H96.9143V223ZM104.284 211.804H106.453V209.815H104.284V211.804ZM104.284 223H106.453V213.28H104.284V223ZM112.902 223.27C114.156 223.27 115.137 222.991 115.845 222.433C116.559 221.875 116.916 221.107 116.916 220.129C116.916 219.373 116.676 218.779 116.196 218.347C115.722 217.915 114.903 217.549 113.739 217.249C112.983 217.057 112.413 216.895 112.029 216.763C111.651 216.631 111.399 216.499 111.273 216.367C111.147 216.235 111.084 216.076 111.084 215.89C111.084 215.566 111.24 215.314 111.552 215.134C111.864 214.948 112.275 214.867 112.785 214.891C113.313 214.921 113.736 215.056 114.054 215.296C114.378 215.536 114.57 215.863 114.63 216.277L116.844 215.881C116.724 215.005 116.295 214.309 115.557 213.793C114.819 213.271 113.883 213.01 112.749 213.01C111.591 213.01 110.664 213.28 109.968 213.82C109.272 214.36 108.924 215.086 108.924 215.998C108.924 216.724 109.167 217.297 109.653 217.717C110.145 218.137 111 218.506 112.218 218.824C112.95 219.016 113.49 219.178 113.838 219.31C114.192 219.436 114.423 219.565 114.531 219.697C114.639 219.829 114.693 220.006 114.693 220.228C114.693 220.588 114.549 220.873 114.261 221.083C113.973 221.287 113.571 221.389 113.055 221.389C112.461 221.389 111.966 221.251 111.57 220.975C111.18 220.699 110.931 220.321 110.823 219.841L108.609 220.183C108.771 221.161 109.227 221.92 109.977 222.46C110.727 223 111.702 223.27 112.902 223.27ZM124.584 223V221.182C123.978 221.272 123.438 221.296 122.964 221.254C122.49 221.212 122.145 221.011 121.929 220.651C121.815 220.465 121.752 220.225 121.74 219.931C121.734 219.631 121.731 219.289 121.731 218.905V214.981H124.584V213.28H121.731V210.58H119.571V213.28H117.807V214.981H119.571V219.031C119.571 219.589 119.577 220.087 119.589 220.525C119.601 220.957 119.718 221.383 119.94 221.803C120.192 222.265 120.561 222.604 121.047 222.82C121.533 223.03 122.082 223.141 122.694 223.153C123.312 223.171 123.942 223.12 124.584 223ZM126.854 211.804H129.023V209.815H126.854V211.804ZM126.854 223H129.023V213.28H126.854V223ZM131.701 223H133.897V218.005C133.897 217.219 134.008 216.613 134.23 216.187C134.458 215.755 134.746 215.458 135.094 215.296C135.448 215.128 135.808 215.044 136.174 215.044C136.69 215.044 137.101 215.158 137.407 215.386C137.713 215.608 137.938 215.893 138.082 216.241C138.232 216.583 138.328 216.94 138.37 217.312C138.418 217.684 138.442 218.02 138.442 218.32V223H140.638V217.573C140.638 217.345 140.617 217.042 140.575 216.664C140.539 216.286 140.455 215.887 140.323 215.467C140.191 215.047 139.987 214.651 139.711 214.279C139.435 213.901 139.06 213.595 138.586 213.361C138.118 213.121 137.527 213.001 136.813 213.001C136.111 213.001 135.493 213.124 134.959 213.37C134.431 213.61 133.99 213.94 133.636 214.36V213.28H131.701V223ZM149.326 223H151.468L154.114 213.784L156.76 223H158.902L162.682 210.04H160.405L157.831 219.4L155.248 210.04L152.971 210.058L150.397 219.4L147.814 210.04H145.537L149.326 223ZM166.06 223.27C166.834 223.27 167.491 223.144 168.031 222.892C168.577 222.634 169.057 222.235 169.471 221.695V223H171.37V217.033C171.37 216.613 171.352 216.226 171.316 215.872C171.28 215.512 171.175 215.161 171.001 214.819C170.683 214.177 170.194 213.715 169.534 213.433C168.88 213.151 168.121 213.01 167.257 213.01C166.117 213.01 165.208 213.259 164.53 213.757C163.852 214.255 163.393 214.915 163.153 215.737L165.133 216.358C165.295 215.86 165.58 215.509 165.988 215.305C166.396 215.101 166.819 214.999 167.257 214.999C167.917 214.999 168.403 215.134 168.715 215.404C169.027 215.668 169.204 216.079 169.246 216.637C168.394 216.763 167.602 216.886 166.87 217.006C166.144 217.12 165.526 217.261 165.016 217.429C164.248 217.693 163.687 218.068 163.333 218.554C162.979 219.034 162.802 219.628 162.802 220.336C162.802 220.87 162.925 221.359 163.171 221.803C163.423 222.247 163.792 222.604 164.278 222.874C164.764 223.138 165.358 223.27 166.06 223.27ZM166.492 221.542C165.982 221.542 165.592 221.425 165.322 221.191C165.058 220.957 164.926 220.663 164.926 220.309C164.926 219.991 165.028 219.733 165.232 219.535C165.442 219.337 165.733 219.169 166.105 219.031C166.447 218.917 166.858 218.818 167.338 218.734C167.818 218.644 168.445 218.539 169.219 218.419C169.213 218.647 169.198 218.902 169.174 219.184C169.15 219.46 169.093 219.709 169.003 219.931C168.931 220.153 168.79 220.39 168.58 220.642C168.376 220.894 168.1 221.107 167.752 221.281C167.404 221.455 166.984 221.542 166.492 221.542ZM179.41 223V221.182C178.804 221.272 178.264 221.296 177.79 221.254C177.316 221.212 176.971 221.011 176.755 220.651C176.641 220.465 176.578 220.225 176.566 219.931C176.56 219.631 176.557 219.289 176.557 218.905V214.981H179.41V213.28H176.557V210.58H174.397V213.28H172.633V214.981H174.397V219.031C174.397 219.589 174.403 220.087 174.415 220.525C174.427 220.957 174.544 221.383 174.766 221.803C175.018 222.265 175.387 222.604 175.873 222.82C176.359 223.03 176.908 223.141 177.52 223.153C178.138 223.171 178.768 223.12 179.41 223ZM185.253 223.27C186.507 223.27 187.488 222.991 188.196 222.433C188.91 221.875 189.267 221.107 189.267 220.129C189.267 219.373 189.027 218.779 188.547 218.347C188.073 217.915 187.254 217.549 186.09 217.249C185.334 217.057 184.764 216.895 184.38 216.763C184.002 216.631 183.75 216.499 183.624 216.367C183.498 216.235 183.435 216.076 183.435 215.89C183.435 215.566 183.591 215.314 183.903 215.134C184.215 214.948 184.626 214.867 185.136 214.891C185.664 214.921 186.087 215.056 186.405 215.296C186.729 215.536 186.921 215.863 186.981 216.277L189.195 215.881C189.075 215.005 188.646 214.309 187.908 213.793C187.17 213.271 186.234 213.01 185.1 213.01C183.942 213.01 183.015 213.28 182.319 213.82C181.623 214.36 181.275 215.086 181.275 215.998C181.275 216.724 181.518 217.297 182.004 217.717C182.496 218.137 183.351 218.506 184.569 218.824C185.301 219.016 185.841 219.178 186.189 219.31C186.543 219.436 186.774 219.565 186.882 219.697C186.99 219.829 187.044 220.006 187.044 220.228C187.044 220.588 186.9 220.873 186.612 221.083C186.324 221.287 185.922 221.389 185.406 221.389C184.812 221.389 184.317 221.251 183.921 220.975C183.531 220.699 183.282 220.321 183.174 219.841L180.96 220.183C181.122 221.161 181.578 221.92 182.328 222.46C183.078 223 184.053 223.27 185.253 223.27ZM195.532 223.27C196.504 223.27 197.353 223.054 198.079 222.622C198.805 222.184 199.369 221.581 199.771 220.813C200.179 220.039 200.383 219.148 200.383 218.14C200.383 217.138 200.182 216.253 199.78 215.485C199.378 214.711 198.814 214.105 198.088 213.667C197.362 213.229 196.51 213.01 195.532 213.01C194.578 213.01 193.738 213.226 193.012 213.658C192.286 214.09 191.719 214.69 191.311 215.458C190.903 216.226 190.699 217.12 190.699 218.14C190.699 219.142 190.897 220.03 191.293 220.804C191.695 221.572 192.259 222.175 192.985 222.613C193.711 223.051 194.56 223.27 195.532 223.27ZM195.532 221.236C194.698 221.236 194.065 220.957 193.633 220.399C193.207 219.835 192.994 219.082 192.994 218.14C192.994 217.222 193.198 216.478 193.606 215.908C194.02 215.332 194.662 215.044 195.532 215.044C196.384 215.044 197.023 215.326 197.449 215.89C197.875 216.448 198.088 217.198 198.088 218.14C198.088 219.052 197.875 219.796 197.449 220.372C197.029 220.948 196.39 221.236 195.532 221.236ZM202.347 223H204.543V218.005C204.543 217.219 204.654 216.613 204.876 216.187C205.104 215.755 205.392 215.458 205.74 215.296C206.094 215.128 206.454 215.044 206.82 215.044C207.336 215.044 207.747 215.158 208.053 215.386C208.359 215.608 208.584 215.893 208.728 216.241C208.878 216.583 208.974 216.94 209.016 217.312C209.064 217.684 209.088 218.02 209.088 218.32V223H211.284V217.573C211.284 217.345 211.263 217.042 211.221 216.664C211.185 216.286 211.101 215.887 210.969 215.467C210.837 215.047 210.633 214.651 210.357 214.279C210.081 213.901 209.706 213.595 209.232 213.361C208.764 213.121 208.173 213.001 207.459 213.001C206.757 213.001 206.139 213.124 205.605 213.37C205.077 213.61 204.636 213.94 204.282 214.36V213.28H202.347V223Z" fill="#18191F"/>
<path d="M89.124 247.21C90.2907 247.21 91.2497 246.914 92.001 246.321C92.757 245.724 93.2773 244.926 93.562 243.927L92.295 243.591C92.0897 244.338 91.721 244.93 91.189 245.369C90.6617 245.803 89.9733 246.02 89.124 246.02C88.3727 246.02 87.745 245.85 87.241 245.509C86.737 245.168 86.359 244.692 86.107 244.081C85.855 243.47 85.7313 242.763 85.736 241.96C85.7407 241.153 85.869 240.446 86.121 239.839C86.373 239.228 86.7487 238.752 87.248 238.411C87.7473 238.07 88.3727 237.9 89.124 237.9C89.9733 237.9 90.6617 238.117 91.189 238.551C91.721 238.985 92.0897 239.578 92.295 240.329L93.562 239.993C93.2773 238.99 92.757 238.192 92.001 237.599C91.2497 237.006 90.2907 236.71 89.124 236.71C88.1207 236.71 87.2667 236.932 86.562 237.375C85.862 237.818 85.33 238.434 84.966 239.223C84.602 240.012 84.42 240.924 84.42 241.96C84.42 242.996 84.602 243.908 84.966 244.697C85.33 245.486 85.862 246.102 86.562 246.545C87.2667 246.988 88.1207 247.21 89.124 247.21ZM98.3172 247.21C99.0685 247.21 99.7149 247.042 100.256 246.706C100.802 246.37 101.222 245.901 101.516 245.299C101.815 244.697 101.964 244.002 101.964 243.213C101.964 242.434 101.817 241.745 101.523 241.148C101.234 240.546 100.816 240.077 100.27 239.741C99.7242 239.4 99.0732 239.23 98.3172 239.23C97.5799 239.23 96.9382 239.398 96.3922 239.734C95.8462 240.065 95.4239 240.53 95.1252 241.127C94.8265 241.724 94.6772 242.42 94.6772 243.213C94.6772 243.992 94.8219 244.683 95.1112 245.285C95.4052 245.887 95.8252 246.358 96.3712 246.699C96.9172 247.04 97.5659 247.21 98.3172 247.21ZM98.3172 246.027C97.5565 246.027 96.9802 245.773 96.5882 245.264C96.1962 244.751 96.0002 244.067 96.0002 243.213C96.0002 242.387 96.1892 241.715 96.5672 241.197C96.9452 240.674 97.5285 240.413 98.3172 240.413C99.0919 240.413 99.6729 240.667 100.06 241.176C100.448 241.685 100.641 242.364 100.641 243.213C100.641 244.044 100.448 244.72 100.06 245.243C99.6775 245.766 99.0965 246.027 98.3172 246.027ZM103.365 243.101H107.565V242.072H103.365V243.101ZM109.384 247H110.63V242.583H114.424V241.337H110.63V238.166H115.264V236.92H109.384V247ZM119.536 247.21C120.287 247.21 120.934 247.042 121.475 246.706C122.021 246.37 122.441 245.901 122.735 245.299C123.034 244.697 123.183 244.002 123.183 243.213C123.183 242.434 123.036 241.745 122.742 241.148C122.453 240.546 122.035 240.077 121.489 239.741C120.943 239.4 120.292 239.23 119.536 239.23C118.799 239.23 118.157 239.398 117.611 239.734C117.065 240.065 116.643 240.53 116.344 241.127C116.045 241.724 115.896 242.42 115.896 243.213C115.896 243.992 116.041 244.683 116.33 245.285C116.624 245.887 117.044 246.358 117.59 246.699C118.136 247.04 118.785 247.21 119.536 247.21ZM119.536 246.027C118.775 246.027 118.199 245.773 117.807 245.264C117.415 244.751 117.219 244.067 117.219 243.213C117.219 242.387 117.408 241.715 117.786 241.197C118.164 240.674 118.747 240.413 119.536 240.413C120.311 240.413 120.892 240.667 121.279 241.176C121.666 241.685 121.86 242.364 121.86 243.213C121.86 244.044 121.666 244.72 121.279 245.243C120.896 245.766 120.315 246.027 119.536 246.027ZM127.594 247.196C128.695 247.196 129.535 246.806 130.114 246.027V247H131.227V239.44H129.974V243.423C129.974 244.296 129.783 244.947 129.4 245.376C129.022 245.801 128.52 246.013 127.895 246.013C127.363 246.013 126.948 245.88 126.649 245.614C126.355 245.348 126.147 245.003 126.026 244.578C125.905 244.149 125.844 243.698 125.844 243.227V239.44H124.584V243.619C124.584 243.978 124.626 244.366 124.71 244.781C124.799 245.192 124.953 245.581 125.172 245.95C125.396 246.314 125.704 246.613 126.096 246.846C126.488 247.079 126.987 247.196 127.594 247.196ZM133.18 247H134.44V243.017C134.44 242.14 134.629 241.489 135.007 241.064C135.39 240.639 135.894 240.427 136.519 240.427C137.051 240.427 137.466 240.56 137.765 240.826C138.064 241.092 138.271 241.437 138.388 241.862C138.509 242.287 138.57 242.737 138.57 243.213V247H139.83V242.821C139.83 242.462 139.786 242.077 139.697 241.666C139.613 241.251 139.459 240.861 139.235 240.497C139.016 240.128 138.71 239.827 138.318 239.594C137.931 239.361 137.431 239.244 136.82 239.244C135.719 239.244 134.879 239.634 134.3 240.413V239.44H133.18V247ZM144.55 247.21C145.063 247.21 145.516 247.117 145.908 246.93C146.304 246.739 146.64 246.477 146.916 246.146V247H148.029V236.92H146.776V240.126C146.505 239.846 146.183 239.627 145.81 239.468C145.436 239.309 145.014 239.23 144.543 239.23C143.843 239.23 143.238 239.405 142.73 239.755C142.226 240.1 141.838 240.574 141.568 241.176C141.297 241.778 141.162 242.457 141.162 243.213C141.162 243.969 141.297 244.648 141.568 245.25C141.838 245.852 142.226 246.33 142.73 246.685C143.238 247.035 143.845 247.21 144.55 247.21ZM144.704 246.069C144.209 246.069 143.796 245.943 143.465 245.691C143.138 245.439 142.893 245.098 142.73 244.669C142.566 244.235 142.485 243.75 142.485 243.213C142.485 242.681 142.564 242.2 142.723 241.771C142.886 241.342 143.133 241.001 143.465 240.749C143.801 240.497 144.225 240.371 144.739 240.371C145.476 240.371 146.022 240.637 146.377 241.169C146.736 241.696 146.916 242.378 146.916 243.213C146.916 244.044 146.738 244.727 146.384 245.264C146.029 245.801 145.469 246.069 144.704 246.069ZM153.266 247.21C153.998 247.21 154.659 247.028 155.247 246.664C155.835 246.295 156.278 245.777 156.577 245.11L155.38 244.697C154.946 245.584 154.222 246.027 153.21 246.027C152.514 246.027 151.968 245.815 151.572 245.39C151.18 244.961 150.958 244.354 150.907 243.57H156.703C156.74 242.674 156.623 241.902 156.353 241.253C156.087 240.604 155.685 240.105 155.149 239.755C154.617 239.405 153.97 239.23 153.21 239.23C152.477 239.23 151.838 239.396 151.292 239.727C150.746 240.054 150.321 240.52 150.018 241.127C149.719 241.729 149.57 242.443 149.57 243.269C149.57 244.058 149.721 244.748 150.025 245.341C150.333 245.929 150.764 246.389 151.32 246.72C151.875 247.047 152.524 247.21 153.266 247.21ZM153.252 240.35C154.535 240.35 155.254 241.09 155.408 242.569H150.928C151.016 241.85 151.257 241.302 151.649 240.924C152.041 240.541 152.575 240.35 153.252 240.35ZM158.261 247H159.514V243.206C159.514 242.758 159.575 242.326 159.696 241.911C159.818 241.496 160.063 241.157 160.431 240.896C160.693 240.705 160.98 240.593 161.292 240.56C161.61 240.527 161.899 240.544 162.16 240.609V239.44C161.824 239.365 161.456 239.365 161.054 239.44C160.653 239.515 160.308 239.669 160.018 239.902C159.766 240.079 159.552 240.324 159.374 240.637V239.44H158.261V247ZM162.223 248.568C162.657 248.647 162.993 248.563 163.231 248.316C163.473 248.069 163.595 247.7 163.595 247.21V245.418H162.223V247H162.944C162.967 247.28 162.937 247.518 162.853 247.714C162.773 247.915 162.589 248.006 162.3 247.987L162.223 248.568ZM169.062 247H173.339C174.263 247 174.993 246.741 175.53 246.223C176.067 245.7 176.335 244.998 176.335 244.116C176.335 243.556 176.195 243.064 175.915 242.639C175.635 242.21 175.238 241.885 174.725 241.666C175.075 241.461 175.35 241.176 175.551 240.812C175.752 240.448 175.852 240.035 175.852 239.573C175.852 239.106 175.738 238.672 175.509 238.271C175.285 237.865 174.958 237.538 174.529 237.291C174.104 237.044 173.591 236.92 172.989 236.92H169.062V247ZM170.322 241.127V238.096H172.975C173.446 238.096 173.829 238.234 174.123 238.509C174.422 238.784 174.571 239.139 174.571 239.573C174.571 240.044 174.415 240.422 174.102 240.707C173.794 240.987 173.418 241.127 172.975 241.127H170.322ZM170.322 245.81V242.303H173.241C173.778 242.303 174.214 242.478 174.55 242.828C174.886 243.173 175.054 243.6 175.054 244.109C175.054 244.641 174.867 245.059 174.494 245.362C174.121 245.661 173.656 245.81 173.101 245.81H170.322ZM180.95 247.21C181.701 247.21 182.348 247.042 182.889 246.706C183.435 246.37 183.855 245.901 184.149 245.299C184.448 244.697 184.597 244.002 184.597 243.213C184.597 242.434 184.45 241.745 184.156 241.148C183.867 240.546 183.449 240.077 182.903 239.741C182.357 239.4 181.706 239.23 180.95 239.23C180.213 239.23 179.571 239.398 179.025 239.734C178.479 240.065 178.057 240.53 177.758 241.127C177.459 241.724 177.31 242.42 177.31 243.213C177.31 243.992 177.455 244.683 177.744 245.285C178.038 245.887 178.458 246.358 179.004 246.699C179.55 247.04 180.199 247.21 180.95 247.21ZM180.95 246.027C180.189 246.027 179.613 245.773 179.221 245.264C178.829 244.751 178.633 244.067 178.633 243.213C178.633 242.387 178.822 241.715 179.2 241.197C179.578 240.674 180.161 240.413 180.95 240.413C181.725 240.413 182.306 240.667 182.693 241.176C183.08 241.685 183.274 242.364 183.274 243.213C183.274 244.044 183.08 244.72 182.693 245.243C182.31 245.766 181.729 246.027 180.95 246.027ZM189.358 247.21C190.11 247.21 190.756 247.042 191.297 246.706C191.843 246.37 192.263 245.901 192.557 245.299C192.856 244.697 193.005 244.002 193.005 243.213C193.005 242.434 192.858 241.745 192.564 241.148C192.275 240.546 191.857 240.077 191.311 239.741C190.765 239.4 190.114 239.23 189.358 239.23C188.621 239.23 187.979 239.398 187.433 239.734C186.887 240.065 186.465 240.53 186.166 241.127C185.868 241.724 185.718 242.42 185.718 243.213C185.718 243.992 185.863 244.683 186.152 245.285C186.446 245.887 186.866 246.358 187.412 246.699C187.958 247.04 188.607 247.21 189.358 247.21ZM189.358 246.027C188.598 246.027 188.021 245.773 187.629 245.264C187.237 244.751 187.041 244.067 187.041 243.213C187.041 242.387 187.23 241.715 187.608 241.197C187.986 240.674 188.57 240.413 189.358 240.413C190.133 240.413 190.714 240.667 191.101 241.176C191.489 241.685 191.682 242.364 191.682 243.213C191.682 244.044 191.489 244.72 191.101 245.243C190.719 245.766 190.138 246.027 189.358 246.027ZM194.539 247H195.806V243.36L199.243 247H200.986L197.255 243.22L200.594 239.44H198.977L195.806 243.08V236.92H194.546L194.539 247ZM201.683 247H202.866V239.657L206.289 247H206.954L210.377 239.657V246.993H211.56V236.92H210.412L206.625 244.949L202.817 236.92H201.683V247ZM214.573 250.36H215.784L219.9 239.44H218.633L216.421 245.39L214.062 239.44H212.753L215.819 246.972L214.573 250.36ZM224.633 247.21C225.333 247.21 225.968 247.093 226.537 246.86C227.107 246.627 227.559 246.286 227.895 245.838C228.236 245.385 228.406 244.835 228.406 244.186C228.406 243.701 228.318 243.299 228.14 242.982C227.963 242.66 227.739 242.403 227.468 242.212C227.198 242.016 226.918 241.864 226.628 241.757C226.344 241.65 226.092 241.566 225.872 241.505L223.954 240.952C223.707 240.882 223.453 240.793 223.191 240.686C222.93 240.574 222.711 240.425 222.533 240.238C222.361 240.047 222.274 239.797 222.274 239.489C222.274 239.176 222.37 238.901 222.561 238.663C222.757 238.42 223.021 238.231 223.352 238.096C223.688 237.961 224.062 237.895 224.472 237.9C225.112 237.905 225.669 238.087 226.145 238.446C226.626 238.801 226.918 239.284 227.02 239.895L228.343 239.664C228.157 238.745 227.72 238.026 227.034 237.508C226.353 236.985 225.504 236.722 224.486 236.717C223.819 236.712 223.217 236.822 222.68 237.046C222.148 237.27 221.728 237.594 221.42 238.019C221.112 238.439 220.958 238.948 220.958 239.545C220.958 240.04 221.061 240.45 221.266 240.777C221.476 241.104 221.747 241.365 222.078 241.561C222.414 241.752 222.769 241.904 223.142 242.016L225.711 242.779C226.071 242.886 226.395 243.05 226.684 243.269C226.974 243.484 227.118 243.813 227.118 244.256C227.118 244.62 227.009 244.935 226.789 245.201C226.575 245.467 226.285 245.672 225.921 245.817C225.557 245.957 225.149 246.027 224.696 246.027C223.992 246.027 223.383 245.85 222.869 245.495C222.356 245.136 222.018 244.639 221.854 244.004L220.566 244.207C220.678 244.823 220.919 245.357 221.287 245.81C221.661 246.258 222.132 246.603 222.701 246.846C223.275 247.089 223.919 247.21 224.633 247.21ZM229.868 247H231.128V243.017C231.128 242.14 231.317 241.489 231.695 241.064C232.077 240.639 232.581 240.427 233.207 240.427C233.739 240.427 234.154 240.56 234.453 240.826C234.751 241.092 234.959 241.437 235.076 241.862C235.197 242.287 235.258 242.737 235.258 243.213V247H236.518V242.821C236.518 242.462 236.473 242.077 236.385 241.666C236.301 241.251 236.147 240.861 235.923 240.497C235.703 240.128 235.398 239.827 235.006 239.594C234.618 239.361 234.119 239.244 233.508 239.244C232.406 239.244 231.566 239.634 230.988 240.413V236.92H229.868V247ZM241.557 247.21C242.309 247.21 242.955 247.042 243.496 246.706C244.042 246.37 244.462 245.901 244.756 245.299C245.055 244.697 245.204 244.002 245.204 243.213C245.204 242.434 245.057 241.745 244.763 241.148C244.474 240.546 244.056 240.077 243.51 239.741C242.964 239.4 242.313 239.23 241.557 239.23C240.82 239.23 240.178 239.398 239.632 239.734C239.086 240.065 238.664 240.53 238.365 241.127C238.067 241.724 237.917 242.42 237.917 243.213C237.917 243.992 238.062 244.683 238.351 245.285C238.645 245.887 239.065 246.358 239.611 246.699C240.157 247.04 240.806 247.21 241.557 247.21ZM241.557 246.027C240.797 246.027 240.22 245.773 239.828 245.264C239.436 244.751 239.24 244.067 239.24 243.213C239.24 242.387 239.429 241.715 239.807 241.197C240.185 240.674 240.769 240.413 241.557 240.413C242.332 240.413 242.913 240.667 243.3 241.176C243.688 241.685 243.881 242.364 243.881 243.213C243.881 244.044 243.688 244.72 243.3 245.243C242.918 245.766 242.337 246.027 241.557 246.027ZM248.082 247H249.118L250.945 241.253L252.772 247H253.808L256.118 239.44H254.886L253.192 244.97L251.498 239.44H250.399L248.698 244.97L247.011 239.44L245.772 239.433L248.082 247Z" fill="#969BAB"/>
</g>
<defs>
<filter id="filter0_d" x="0" y="0" width="390" height="316" filterUnits="userSpaceOnUse" color-interpolation-filters="sRGB">
<feFlood flood-opacity="0" result="BackgroundImageFix"/>
<feColorMatrix in="SourceAlpha" type="matrix" values="0 0 0 0 0 0 0 0 0 0 0 0 0 0 0 0 0 0 127 0"/>
<feOffset dy="10"/>
<feGaussianBlur stdDeviation="10"/>
<feColorMatrix type="matrix" values="0 0 0 0 0.160784 0 0 0 0 0.160784 0 0 0 0 0.164706 0 0 0 0.07 0"/>
<feBlend mode="normal" in2="BackgroundImageFix" result="effect1_dropShadow"/>
<feBlend mode="normal" in="SourceGraphic" in2="effect1_dropShadow" result="shape"/>
</filter>
</defs>
</svg>
